<svg width="1200" height="675" viewBox="0 0 1200 675" fill="none" xmlns="http://www.w3.org/2000/svg">
  <rect width="1200" height="675" rx="32" fill="#082F49"/>
  <rect x="64" y="64" width="1072" height="547" rx="28" fill="#0F172A"/>
  <circle cx="250" cy="250" r="108" fill="#0EA5E9" fill-opacity="0.2"/>
  <path d="M250 154C197 154 154 197 154 250C154 303 197 346 250 346C303 346 346 303 346 250C346 197 303 154 250 154ZM250 196C279 196 304 220 304 250C304 280 279 304 250 304C220 304 196 280 196 250C196 220 220 196 250 196Z" fill="#E0F2FE"/>
  <rect x="410" y="182" width="420" height="28" rx="14" fill="#E2E8F0"/>
  <rect x="410" y="228" width="300" height="20" rx="10" fill="#94A3B8"/>
  <rect x="410" y="320" width="520" height="20" rx="10" fill="#94A3B8"/>
  <rect x="410" y="356" width="468" height="20" rx="10" fill="#94A3B8"/>
  <text x="410" y="438" fill="#F8FAFC" font-family="Arial, sans-serif" font-size="54" font-weight="700">Команда</text>
  <text x="410" y="480" fill="#CBD5E1" font-family="Arial, sans-serif" font-size="28">Зображення поки не додано</text>
</svg>
