<svg width="96" height="96" viewBox="0 0 96 96" fill="none" xmlns="http://www.w3.org/2000/svg">
  <rect width="96" height="96" rx="24" fill="#020817"/>
  <g transform="translate(48 48) rotate(-28) translate(-48 -48)">
    <path
      d="M18 48C18 38.5 22.2 29.4 29 22.7C35.6 16.2 41.5 13 48 13C54.5 13 60.4 16.2 67 22.7C73.8 29.4 78 38.5 78 48C78 57.5 73.8 66.6 67 73.3C60.4 79.8 54.5 83 48 83C41.5 83 35.6 79.8 29 73.3C22.2 66.6 18 57.5 18 48Z"
      fill="#FFFFFF"
    />
    <path
      d="M48 9C56.8 9 64.1 14.5 71 21.4C78.5 28.8 83 38.1 83 48C83 57.9 78.5 67.2 71 74.6C64.1 81.5 56.8 87 48 87C39.2 87 31.9 81.5 25 74.6C17.5 67.2 13 57.9 13 48C13 38.1 17.5 28.8 25 21.4C31.9 14.5 39.2 9 48 9ZM48 17C41.9 17 36.5 20.8 30.7 26.5C24.7 32.5 21 40 21 48C21 56 24.7 63.5 30.7 69.5C36.5 75.2 41.9 79 48 79C54.1 79 59.5 75.2 65.3 69.5C71.3 63.5 75 56 75 48C75 40 71.3 32.5 65.3 26.5C59.5 20.8 54.1 17 48 17Z"
      fill="#FFFFFF"
    />
    <path
      d="M25 31C31.8 25.9 39.1 22.8 48 22.8C56.9 22.8 64.2 25.9 71 31"
      stroke="#0F766E"
      stroke-width="5"
      stroke-linecap="round"
    />
    <path
      d="M25 65C31.8 70.1 39.1 73.2 48 73.2C56.9 73.2 64.2 70.1 71 65"
      stroke="#0F766E"
      stroke-width="5"
      stroke-linecap="round"
    />
    <path
      d="M36 48H60"
      stroke="#0F766E"
      stroke-width="4.5"
      stroke-linecap="round"
    />
    <path
      d="M40 42.2L36.8 48L40 53.8"
      stroke="#0F766E"
      stroke-width="3.5"
      stroke-linecap="round"
      stroke-linejoin="round"
    />
    <path
      d="M48 41L45.2 48L48 55"
      stroke="#0F766E"
      stroke-width="3.5"
      stroke-linecap="round"
      stroke-linejoin="round"
    />
    <path
      d="M56 42.2L52.8 48L56 53.8"
      stroke="#0F766E"
      stroke-width="3.5"
      stroke-linecap="round"
      stroke-linejoin="round"
    />
  </g>
</svg>
