<svg width="140" height="84" viewBox="0 0 140 84" fill="none" xmlns="http://www.w3.org/2000/svg">
  <g transform="translate(70 42) rotate(-24) translate(-70 -42)">
    <path
      d="M20 42C20 31.5 24.9 21.7 32.8 15.3C40.1 9.5 47.8 6 56 6H84C92.2 6 99.9 9.5 107.2 15.3C115.1 21.7 120 31.5 120 42C120 52.5 115.1 62.3 107.2 68.7C99.9 74.5 92.2 78 84 78H56C47.8 78 40.1 74.5 32.8 68.7C24.9 62.3 20 52.5 20 42Z"
      fill="#0F766E"
    />
    <path
      d="M28 42C28 33.6 31.9 25.8 38.3 20.6C43.9 16.1 49.9 13.5 56.2 13.5H83.8C90.1 13.5 96.1 16.1 101.7 20.6C108.1 25.8 112 33.6 112 42C112 50.4 108.1 58.2 101.7 63.4C96.1 67.9 90.1 70.5 83.8 70.5H56.2C49.9 70.5 43.9 67.9 38.3 63.4C31.9 58.2 28 50.4 28 42Z"
      fill="#F8FBFF"
    />
    <path
      d="M33.5 27.5C41.9 21.9 50 19 70 19C90 19 98.1 21.9 106.5 27.5"
      stroke="#0B5C56"
      stroke-width="4.5"
      stroke-linecap="round"
    />
    <path
      d="M33.5 56.5C41.9 62.1 50 65 70 65C90 65 98.1 62.1 106.5 56.5"
      stroke="#0B5C56"
      stroke-width="4.5"
      stroke-linecap="round"
    />
    <path
      d="M55 42H85"
      stroke="#0B5C56"
      stroke-width="4.5"
      stroke-linecap="round"
    />
    <path d="M60 35L56 42L60 49" stroke="#0B5C56" stroke-width="3.5" stroke-linecap="round" stroke-linejoin="round"/>
    <path d="M70 33.8L66.8 42L70 50.2" stroke="#0B5C56" stroke-width="3.5" stroke-linecap="round" stroke-linejoin="round"/>
    <path d="M80 35L76 42L80 49" stroke="#0B5C56" stroke-width="3.5" stroke-linecap="round" stroke-linejoin="round"/>
  </g>
</svg>
