<svg width="160" height="96" viewBox="0 0 160 96" fill="none" xmlns="http://www.w3.org/2000/svg">
  <rect width="160" height="96" rx="24" fill="#020817"/>
  <path
    d="M20 55C31 28 58 13 106 14C123 14 137 17 147 22C132 14 112 10 88 10C45 10 22 28 20 55Z"
    fill="#F04A3A"
  />
  <path
    d="M15 52C22 25 47 8 90 8C111 8 128 11 142 19C125 9 104 5 80 5C39 5 18 25 15 52Z"
    fill="#F04A3A"
  />
  <path
    d="M140 44C132 69 108 85 69 85C51 85 35 82 22 75C38 85 58 90 82 90C121 90 142 70 145 44H140Z"
    fill="#FFFFFF"
  />
  <path
    d="M145 48C140 72 117 91 74 91C53 91 34 87 18 78C35 89 57 94 82 94C123 94 145 73 149 48H145Z"
    fill="#FFFFFF"
  />
  <ellipse cx="82" cy="49" rx="50" ry="28" fill="#020817"/>
  <path
    d="M42 50C49 32 66 22 95 22C109 22 120 24 129 29"
    stroke="#F04A3A"
    stroke-width="3.5"
    stroke-linecap="round"
  />
  <path
    d="M122 66C114 74 101 78 80 78C61 78 47 73 38 64"
    stroke="#FFFFFF"
    stroke-width="3.5"
    stroke-linecap="round"
  />
  <path
    d="M46.588 61V34.818H58.972C61.364 34.818 63.428 35.202 65.164 35.97C66.924 36.714 68.276 37.814 69.22 39.27C70.188 40.702 70.672 42.462 70.672 44.55C70.672 46.638 70.176 48.386 69.184 49.794C68.192 51.178 66.78 52.218 64.948 52.914L70.888 61H63.896L58.792 53.85H53.256V61H46.588ZM53.256 48.492H58.432C60.072 48.492 61.328 48.134 62.2 47.418C63.072 46.678 63.508 45.602 63.508 44.19C63.508 42.778 63.072 41.714 62.2 40.998C61.328 40.258 60.072 39.888 58.432 39.888H53.256V48.492Z"
    fill="#FFFFFF"
  />
  <path
    d="M73.433 61V34.818H80.101V61H73.433Z"
    fill="#FFFFFF"
  />
  <path
    d="M93.859 61.504C91.131 61.504 88.727 60.988 86.647 59.956C84.567 58.9 82.939 57.42 81.763 55.516C80.611 53.612 80.035 51.394 80.035 48.862C80.035 46.33 80.611 44.112 81.763 42.208C82.939 40.304 84.567 38.836 86.647 37.804C88.727 36.748 91.131 36.22 93.859 36.22C96.107 36.22 98.127 36.58 99.919 37.3C101.711 38.02 103.203 39.078 104.395 40.474L100.207 44.334C99.311 43.366 98.355 42.646 97.339 42.174C96.347 41.678 95.223 41.43 93.967 41.43C92.519 41.43 91.239 41.714 90.127 42.282C89.039 42.85 88.191 43.654 87.583 44.694C86.999 45.734 86.707 46.954 86.707 48.354C86.707 49.754 86.999 50.986 87.583 52.05C88.191 53.09 89.039 53.894 90.127 54.462C91.239 55.03 92.519 55.314 93.967 55.314C95.223 55.314 96.347 55.066 97.339 54.57C98.355 54.074 99.311 53.342 100.207 52.374L104.395 56.234C103.203 57.63 101.711 58.7 99.919 59.444C98.127 60.152 96.107 60.506 93.859 60.506V61.504Z"
    fill="#FFFFFF"
  />
  <rect x="67" y="66.5" width="29" height="3" rx="1.5" fill="#F04A3A"/>
</svg>
