<svg width="96" height="96" viewBox="0 0 96 96" fill="none" xmlns="http://www.w3.org/2000/svg">
  <rect width="96" height="96" rx="24" fill="#020817"/>
  <path d="M67.839 28.161c10.78 10.781 10.78 28.259 0 39.039-10.78 10.78-28.258 10.78-39.039 0L67.839 28.16Z" fill="#F8FBFF"/>
  <path d="M28.161 67.839c-10.78-10.781-10.78-28.259 0-39.039 10.78-10.78 28.258-10.78 39.039 0L28.16 67.84Z" fill="#D7F3EF"/>
  <path d="M58.162 37.838c5.61 5.61 5.61 14.704 0 20.324-5.61 5.61-14.704 5.61-20.324 0l20.324-20.324Z" fill="#0F766E"/>
  <path d="M37.838 58.162c-5.61-5.61-5.61-14.704 0-20.324 5.62-5.61 14.704-5.61 20.324 0L37.838 58.162Z" fill="#F8FBFF"/>
  <path d="M34.503 48c8.396 1.527 18.598 1.527 26.994 0" stroke="#020817" stroke-width="3.5" stroke-linecap="round"/>
  <path d="M48 34.503c-1.527 8.396-1.527 18.598 0 26.994" stroke="#020817" stroke-width="3.5" stroke-linecap="round"/>
</svg>
